<svg #backgroundCircle version="1.1" id="Layer_1" xmlns="http://www.w3.org/2000/svg" xmlns:xlink="http://www.w3.org/1999/xlink" x="0px" y="0px"
	viewBox="0 0 5000 5000" style="enable-background:new 0 0 5000 5000;" xml:space="preserve">
	<style type="text/css">
	.st0{fill:none;}
	</style>
	<path stroke="#000" fill="none" class="st0" d="M2598.8,2499.8c0,54.6-44.3,98.9-98.9,98.9s-98.9-44.3-98.9-98.9c0-54.6,44.3-98.9,98.9-98.9
	S2598.8,2445.2,2598.8,2499.8z M2499.9,2124.1c-207.5,0-375.8,168.2-375.8,375.8c0,207.5,168.2,375.8,375.8,375.8
	s375.8-168.2,375.8-375.8C2875.7,2292.3,2707.4,2124.1,2499.9,2124.1z M2499.9,1847.2c-360.4,0-652.6,292.2-652.6,652.6
	s292.2,652.6,652.6,652.6s652.6-292.2,652.6-652.6S2860.3,1847.2,2499.9,1847.2z M2500.2,1570.8c-513.3,0-929.5,416.1-929.5,929.5
	s416.1,929.5,929.5,929.5s929.5-416.1,929.5-929.5S3013.5,1570.8,2500.2,1570.8z M2500.2,1293.9
	c-666.3,0-1206.4,540.1-1206.4,1206.4s540.1,1206.4,1206.4,1206.4s1206.4-540.1,1206.4-1206.4S3166.4,1293.9,2500.2,1293.9z
	M2500.2,1017c-819.2,0-1483.2,664.1-1483.2,1483.2S1681,3983.5,2500.2,3983.5s1483.2-664.1,1483.2-1483.2S3319.3,1017,2500.2,1017
	z M2500.2,740.2c-972.1,0-1760.1,788-1760.1,1760.1s788,1760.1,1760.1,1760.1s1760.1-788,1760.1-1760.1S3472.2,740.2,2500.2,740.2z
	M2500.2,463.3c-1125,0-2037,912-2037,2037s912,2037,2037,2037s2037-912,2037-2037S3625.2,463.3,2500.2,463.3z M2500.2,186.4
	c-1277.9,0-2313.8,1035.9-2313.8,2313.8s1035.9,2313.8,2313.8,2313.8S4814,3778.2,4814,2500.3S3778.1,186.4,2500.2,186.4z"/>
	<path stroke="#000" fill="none" class="st0" d="M2737.2,2499.8c0,131.1-106.2,237.3-237.3,237.3s-237.3-106.3-237.3-237.3s106.3-237.3,237.3-237.3
	S2737.2,2368.8,2737.2,2499.8z M2499.9,1985.7c-284,0-514.2,230.2-514.2,514.2s230.2,514.2,514.2,514.2s514.2-230.2,514.2-514.2
	S2783.9,1985.7,2499.9,1985.7z M2500.2,1709.2c-436.9,0-791.1,354.2-791.1,791.1s354.2,791.1,791.1,791.1s791.1-354.2,791.1-791.1
	S2937.1,1709.2,2500.2,1709.2z M2500.2,1432.3c-589.8,0-1067.9,478.1-1067.9,1067.9s478.1,1067.9,1067.9,1067.9
	s1067.9-478.1,1067.9-1067.9S3090,1432.3,2500.2,1432.3z M2500.2,1155.5c-742.7,0-1344.8,602.1-1344.8,1344.8
	s602.1,1344.8,1344.8,1344.8S3845,3243,3845,2500.3S3242.9,1155.5,2500.2,1155.5z M2500.2,878.6c-895.6,0-1621.7,726-1621.7,1621.7
	s726,1621.7,1621.7,1621.7s1621.7-726,1621.7-1621.7S3395.8,878.6,2500.2,878.6z M2500.2,601.7c-1048.5,0-1898.5,850-1898.5,1898.5
	s850,1898.5,1898.5,1898.5s1898.5-850,1898.5-1898.5S3548.7,601.7,2500.2,601.7z M2500.2,324.9c-1201.4,0-2175.4,974-2175.4,2175.4
	s974,2175.4,2175.4,2175.4s2175.4-974,2175.4-2175.4S3701.6,324.9,2500.2,324.9z M2500.2,48C1145.8,48,47.9,1145.9,47.9,2500.3
	s1097.9,2452.3,2452.3,2452.3s2452.3-1097.9,2452.3-2452.3S3854.5,48,2500.2,48z"/>
</svg>