<svg id="Layer_1" data-name="Layer 1" xmlns="http://www.w3.org/2000/svg" viewBox="0 0 3000 3000"><path d="M1500,1052a446.61,446.61,0,1,1-174.38,35.21A445,445,0,0,1,1500,1052m0-2c-248.53,0-450,201.47-450,450s201.47,450,450,450,450-201.47,450-450-201.47-450-450-450Z"/><path d="M1500.17,1002.27a496.41,496.41,0,1,1-193.84,39.13,495,495,0,0,1,193.84-39.13m0-2c-276.14,0-500,223.86-500,500s223.86,500,500,500,500-223.86,500-500-223.86-500-500-500Z"/><path d="M1500.17,952.27a545.28,545.28,0,0,1,306.39,93.59A549.72,549.72,0,0,1,2005.11,1287a547.26,547.26,0,0,1-50.53,519.7,549.56,549.56,0,0,1-241.1,198.54,547.34,547.34,0,0,1-519.7-50.52,549.65,549.65,0,0,1-198.55-241.11,547.2,547.2,0,0,1,50.53-519.69,549.65,549.65,0,0,1,241.11-198.55,544.59,544.59,0,0,1,213.3-43.06m0-2c-303.76,0-550,246.24-550,550s246.24,550,550,550,550-246.25,550-550-246.24-550-550-550Z"/></svg>