<?xml version="1.0" encoding="utf-8"?>
<!-- Generator: Adobe Illustrator 26.0.3, SVG Export Plug-In . SVG Version: 6.00 Build 0)  -->
<svg version="1.1" id="_x35_b76082e-5b5f-4c2c-807e-e081526d1946"
	 xmlns="http://www.w3.org/2000/svg" xmlns:xlink="http://www.w3.org/1999/xlink" x="0px" y="0px" viewBox="0 0 423.8 423.8"
	 style="enable-background:new 0 0 423.8 423.8;" xml:space="preserve">
<style type="text/css">
	.st0{display:none;fill:#1DA1F2;}
	.st1{fill:none;stroke:#FFFFFF;stroke-width:8;stroke-miterlimit:10;}
	.st2{display:none;fill:#FFFFFF;}
	.st3{fill:#FFFFFF;}
</style>
<circle class="st0" cx="211.9" cy="211.9" r="211.9"/>
<path class="st1" d="M76.6,123.9h269.5c3.8,0,6.9,3.1,6.9,6.9V293c0,3.8-3.1,6.9-6.9,6.9H76.6c-3.8,0-6.9-3.1-6.9-6.9V130.8
	C69.6,127,72.7,123.9,76.6,123.9z"/>
<polyline class="st1" points="350.9,126.8 211.9,219.9 71.7,126.8 "/>
<path class="st2" d="M211.9,11.4c110.8,0.2,200.4,90.2,200.2,201C412,292.7,363.9,365.2,290,396.7c-103,40.8-221.5-8.2-262.2-111.3
	C-11.8,185.6,36,71.1,133.9,27C158.6,16.6,185.1,11.3,211.9,11.4 M211.9,0.4C95.1,0.4,0.4,95.1,0.4,211.9s94.7,211.5,211.5,211.5
	s211.5-94.7,211.5-211.5S328.7,0.4,211.9,0.4z"/>
<path class="st3" d="M211.9,11.8c110.8,0.2,200.4,90.2,200.2,201C412,293.1,363.9,365.6,290,397.1c-103.1,40.7-219.6-9.9-260.3-113
	C-9.7,184.4,36.2,71.4,133.8,27.4C158.6,17.1,185.1,11.7,211.9,11.8 M211.9,0.8C95.1,0.8,0.4,95.5,0.4,212.3s94.7,211.5,211.5,211.5
	s211.5-94.7,211.5-211.5S328.7,0.8,211.9,0.8z"/>
</svg>
