<svg id="Layer_1" data-name="Layer 1" xmlns="http://www.w3.org/2000/svg" viewBox="0 0 858.68 373.55"><defs><style>.cls-1,.cls-3{fill:#fff;}.cls-2{fill:none;stroke:#fff;stroke-linecap:round;stroke-linejoin:round;stroke-width:12px;}.cls-3{stroke:#000;stroke-miterlimit:10;stroke-width:4px;}</style></defs><g id="Export"><path class="cls-1" d="M306.31,353.86A138.32,138.32,0,0,1,355,322.7c80.69-30.34,170,20.94,184.08,105.92a149,149,0,0,1,1.95,23.3c.2,32,0,64.06,0,96.1a56.52,56.52,0,0,0,54.51,57.34c30.52,1.48,57.93-24.55,58-55.16V508.32c1,0,1.81-.2,2.57-.2h38.09a40.57,40.57,0,0,1,41,40.13v.9a56.73,56.73,0,0,0,57.24,56.22,57.71,57.71,0,0,0,6.16-.39c29.38-3.2,49.1-25.31,49.13-54.92,0-33.44-.26-67,.2-100.3.32-22.39,19.34-39.23,42.4-38.7a40.57,40.57,0,0,1,38.91,40.22c0,34.71.47,69.42,0,104.13a128.54,128.54,0,0,1-35.88,88.16c-29.7,31.68-66.8,45.43-110,42.89a135.58,135.58,0,0,1-86.87-37.62l-1.69-1.58c-6.18,4.93-12,10.11-18.35,14.57C594.38,719.69,479,672,461.73,572.92a150,150,0,0,1-2.13-24.67c-.23-32,0-64.3,0-96.45a56.23,56.23,0,0,0-111.76-8.74,66.74,66.74,0,0,0-.73,10.08V492.4a22.27,22.27,0,0,1-2.57.32c-14.21,0-28.48.61-42.6-.56a39.8,39.8,0,0,1-36.4-40C265,422.71,245.15,399.76,216,396c-36.05-4.6-58.51,19.83-62.41,44.41a62.68,62.68,0,0,0-.67,9.38v98.55a40.75,40.75,0,0,1-32.7,40.59c-24,5.3-48.46-13.3-48.75-37.85-.41-35.88-1.49-71.82.29-107.75,2.71-55.34,30.49-95.49,81-118.24C204,302,264.46,313.68,305.06,352.61A5.9,5.9,0,0,0,306.31,353.86ZM694.5,629.7l2.39,2.6a128.27,128.27,0,0,0,139.78,35.38A122.32,122.32,0,0,0,917.6,555.47c.7-34.56.18-69.19,0-103.79a29.12,29.12,0,0,0-39.52-27c-11.88,4.57-18.69,15.08-18.72,29.12v98.55a57.62,57.62,0,0,1-.7,9.37c-5.24,31-28.95,52.42-60.66,55A68.29,68.29,0,0,1,723.73,555q-.29-3.09-.28-6.2a28.34,28.34,0,0,0-22.66-28.1,77.14,77.14,0,0,0-14.24-.87H665.32v4.51a314,314,0,0,1-.61,31.74c-3.23,27.84-18.44,47.38-44.7,56.76s-50.35,3.58-70.57-15.78a65.35,65.35,0,0,1-20.15-48.64V451.3A121.7,121.7,0,0,0,490,360.39a125.83,125.83,0,0,0-177.9,4.49C311,366,310,367.11,309,368.25c-.82.93-1.69,1.81-2.65,2.91-1.57-1.75-2.91-3.2-4.2-4.66s-2.65-2.91-4.07-4.31c-31-29.53-67.91-40.77-110-34.94a122.51,122.51,0,0,0-104.84,119c-.47,34.36,0,68.73,0,103.09a27.22,27.22,0,0,0,9.58,21.29A27.74,27.74,0,0,0,124,575.54a27.78,27.78,0,0,0,17.47-27.14V449.15a55,55,0,0,1,.41-8,66.08,66.08,0,0,1,74-57.05c1.72.23,3.44.52,5.14.88,33.4,6.46,55.56,32.93,56.26,67.18A28.72,28.72,0,0,0,299.09,480a69,69,0,0,0,14.21,1c7.31.14,14.56,0,22.22,0v-7c.29-11-.44-22.25,1.1-33.11a67.83,67.83,0,0,1,134.81,10.57v96.8a123.81,123.81,0,0,0,39.25,92.08,126,126,0,0,0,146.89,19.66A128,128,0,0,0,694.5,629.7Z" transform="translate(-70.8 -313.31)"/><path d="M694.5,629.7A128.14,128.14,0,0,1,657.43,660a126,126,0,0,1-146.89-19.66,123.86,123.86,0,0,1-39.26-92.08c-.14-32.27,0-64.53,0-96.8a67.82,67.82,0,0,0-134.8-10.57c-1.55,10.86-.82,22.07-1.11,33.11v7H313.15a69,69,0,0,1-14.21-1,28.71,28.71,0,0,1-21.81-27.84c-.7-34.25-22.86-60.72-56.27-67.18a66.08,66.08,0,0,0-78.28,51c-.35,1.7-.64,3.42-.87,5.14a56.42,56.42,0,0,0-.41,8v99.25a27.78,27.78,0,0,1-17.47,27.14,27.74,27.74,0,0,1-31.22-5A27.25,27.25,0,0,1,83,549.27c0-34.36-.41-68.73,0-103.09a122.51,122.51,0,0,1,104.84-119c42.11-5.83,79,5.36,110,34.94,1.43,1.37,2.74,2.92,4.08,4.31s2.65,2.92,4.19,4.66c.93-1,1.81-1.89,2.65-2.91a125.84,125.84,0,0,1,177.61-11.15c1.21,1.06,2.39,2.15,3.56,3.26a121.7,121.7,0,0,1,39.34,90.92c.21,32.38,0,64.76,0,97.15A65.33,65.33,0,0,0,549.47,597c20.19,19.39,44.24,25.19,70.57,15.78s41.47-28.91,44.7-56.75a314.3,314.3,0,0,0,.61-31.75V519.8h21.23a77.14,77.14,0,0,1,14.24.87,28.36,28.36,0,0,1,22.66,28.1,68.29,68.29,0,0,0,68.3,68.28q3.22,0,6.42-.3c31.75-2.51,55.33-23.94,60.66-55a56.53,56.53,0,0,0,.7-9.37V453.81c0-14,6.82-24.52,18.73-29.12a29.12,29.12,0,0,1,39.49,27c0,34.6.55,69.2,0,103.79a122.34,122.34,0,0,1-80.87,112.21,128.28,128.28,0,0,1-139.79-35.38ZM306.92,389.89c-7.43-8.13-14-16.84-22.1-23.88-29.56-25.83-64.07-33.58-102.28-26.21C133.82,349.38,95.73,394.46,94.83,444c-.64,34.94-.27,69.66-.21,104.46a17.48,17.48,0,0,0,34.95-.47V450.81a89.52,89.52,0,0,1,2.5-21.06c9.61-37.85,47.5-66.33,95.35-55.33,36.37,8.39,60.4,39.38,61.44,77.7.24,8.21,5.45,15.55,13.25,16.57a169,169,0,0,0,21.7.2V452a90.6,90.6,0,0,1,.55-9.75A79.62,79.62,0,0,1,483,452.64v97.15a98.15,98.15,0,0,0,1.66,19.43c9.17,44.09,34.74,74.75,77.67,88.5s82.09,4,115.2-27.08a231.42,231.42,0,0,0,16.75-19.34c6.4,7.13,12.46,15.43,20,22,35,30.76,75.26,38,118.82,23.07a108.06,108.06,0,0,0,72.54-97.82c1.28-35.7.35-71.49.35-107.26a15.89,15.89,0,0,0-6.14-12.78,17.46,17.46,0,0,0-28.74,13.77v99.25A77.59,77.59,0,0,1,868.41,572c-17,60.16-88.73,72.8-129.35,36.78a77.83,77.83,0,0,1-27-58.8c-.2-9.67-5.62-16.89-14.56-18a175.57,175.57,0,0,0-20.39-.14v4.89c-.43,8.94,0,18.08-1.51,26.79-8,42.08-45.4,69.22-88,64.51A79.48,79.48,0,0,1,518,550.38c0-32.62.21-65.24,0-97.85a112.7,112.7,0,0,0-36.81-84.46,114.54,114.54,0,0,0-150.82-4.22A117.16,117.16,0,0,0,306.92,389.89Z" transform="translate(-70.8 -313.31)"/><path class="cls-1" d="M306.92,389.89a117.11,117.11,0,0,1,23.3-26.21A114.53,114.53,0,0,1,481,367.9a112.7,112.7,0,0,1,36.81,84.45c.26,32.62,0,65.24,0,97.85a79.46,79.46,0,0,0,69.57,77.64c42.63,4.75,80.06-22.42,88-64.5,1.66-8.74,1.08-17.86,1.52-26.8v-4.89a177.64,177.64,0,0,1,20.38.15c9.06,1.07,14.56,8.27,14.56,18a77.88,77.88,0,0,0,27,58.79c40.77,36.14,112.38,23.3,129.36-36.78a77.93,77.93,0,0,0,2.65-20.38c.26-33.09,0-66.17,0-99.25a17.48,17.48,0,0,1,28.74-13.78,15.93,15.93,0,0,1,6.15,12.79c0,35.76.93,71.55-.35,107.25a108.08,108.08,0,0,1-72.31,98c-43.68,15-83.84,7.72-118.82-23.07-7.51-6.61-13.57-14.91-20-22a233.16,233.16,0,0,1-16.74,19.34c-33.11,31.07-72.05,40.77-115.21,27.08s-68.49-44.41-77.66-88.5a98.15,98.15,0,0,1-1.66-19.43c-.18-32.38,0-64.76,0-97.15a79.62,79.62,0,0,0-158.63-10.36,90.6,90.6,0,0,0-.55,9.75v16.86a169,169,0,0,1-21.7-.2c-7.83-1-13.05-8.39-13.25-16.57-1.13-38.32-25.16-69.31-61.53-77.61-47.82-10.95-85.74,17.47-95.35,55.33a89.45,89.45,0,0,0-2.5,21.06c-.26,32.38,0,64.76,0,97.15a17.48,17.48,0,0,1-34.95.46c0-34.94-.46-69.66.21-104.46.93-49.5,39-94.58,87.71-104.16,38.06-7.49,72.8.23,102.28,26.2C292.88,373,299.49,381.76,306.92,389.89Z" transform="translate(-70.8 -313.31)"/><line class="cls-2" x1="72.3" y1="343.25" x2="786.1" y2="30.13"/><circle cx="429.57" cy="188.78" r="65"/><circle class="cls-3" cx="429.57" cy="188.78" r="56.7"/><path id="pupil" d="M500.43,469.59a32.5,32.5,0,1,0,32.5,32.5,32.5,32.5,0,0,0-32.5-32.5Zm8.39,36.21a12.1,12.1,0,1,1,12.1-12.09h0A12.09,12.09,0,0,1,508.82,505.8Z" transform="translate(-70.8 -313.31)"/></g></svg>