<?xml version="1.0" encoding="utf-8"?>
<!-- Generator: Adobe Illustrator 26.0.3, SVG Export Plug-In . SVG Version: 6.00 Build 0)  -->
<svg version="1.1" id="_x33_92c9a36-de95-4558-ac4a-538ad9df26bb"
	 xmlns="http://www.w3.org/2000/svg" xmlns:xlink="http://www.w3.org/1999/xlink" x="0px" y="0px" viewBox="0 0 423.8 423.8"
	 style="enable-background:new 0 0 423.8 423.8;" xml:space="preserve">
<style type="text/css">
	.st0{display:none;stroke:#000000;stroke-miterlimit:10;}
	.st1{fill:#FFFFFF;}
</style>
<rect y="0" class="st0" width="423.8" height="423.8"/>
<path class="st1" d="M211.9,11c111,0.2,200.8,90.4,200.6,201.4c-0.2,80.5-48.3,153.1-122.4,184.6c-103.3,40.8-220-9.9-260.8-113.2
	c-39.4-99.8,6.5-213,104.4-257.1C158.5,16.3,185,11,211.9,11 M211.9,0C94.9,0,0,94.9,0,211.9s94.9,211.9,211.9,211.9
	s211.9-94.9,211.9-211.9S328.9,0,211.9,0z"/>
<path class="st1" d="M309,84.2v257.1H114.8V84.2H309 M315,78.2H108.8v269.1H315V78.2z"/>
<path class="st1" d="M315,347.4H111.2c-2.4,0-2.4,0-2.4-2.5V80.7c0-2.4,0-2.4,2.4-2.4h159.6c1.6-0.1,3.2,0.7,4.1,2.1
	c12.9,16.9,25.9,33.9,38.8,50.8c0.7,0.9,1.1,2,1.1,3.2c0.1,70.4,0.1,140.8,0,211.1L315,347.4z"/>
<path class="st1" d="M131.7,196.8v-68.6H292v68.6L131.7,196.8L131.7,196.8z"/>
<path d="M232.1,274.7h17.3l-37.4,53l-37.3-53h17.1v-55.3h40.3V274.7z"/>
<path d="M193,186v-6.2c0.2-0.1,0.3-0.2,0.4-0.2c3.3-0.3,3.3-0.3,3.3-3.7v-26.2c0-3.1,0.2-2.8-2.7-2.8c-0.3,0-0.6-0.1-0.9-0.1v-6.2
	h3.4c5.6,0.1,11.3-0.2,16.8,0.4c15.7,1.8,22,14,19.5,27.6c-1.7,9.3-8.5,15.7-18.4,16.8C207.3,185.9,200.1,186.2,193,186z M205.4,179
	c6.7,0.8,12.5-0.4,16-6.6c3.5-6.5,3-14.4-1.3-20.4c-3.1-3.9-9.7-6-14.7-4.6V179z"/>
<path d="M168.1,185.7h-16.4v-6c0.1-0.1,0.2-0.2,0.3-0.2c3.3-0.3,3.3-0.3,3.3-3.6v-26.2c0-3.3,0-2.8-2.7-2.9c-0.3,0-0.6-0.1-0.9-0.1
	v-6.1c0.3-0.1,0.6-0.1,0.9-0.1c6.7,0,13.4-0.1,20.1,0.1c3.9-0.1,7.8,1.3,10.7,3.9c4.1,3.7,4.9,8.4,3.6,13.5s-5.1,8.1-10.1,8.9
	c-3.6,0.5-7.3,0.7-11,0.7c-1.4,0-2,0.4-2,1.9c0.1,3.2,0,6.4,0,9.7l4.2,0.3V185.7z M164,154c-0.1,1.9,0,3.8,0.1,5.7
	c0,0.4,0.7,1.2,1.1,1.2c2.7,0.1,5.3,0.1,8-0.2c3.9-0.5,5.6-2.9,5.4-7.2c-0.1-3.7-2.4-6.2-5.9-6.5c-2.4-0.2-4.8-0.1-7.2-0.1
	c-1.1,0-1.4,0.5-1.4,1.5C164,150.4,164,152.2,164,154z"/>
<path d="M240.5,146.7v-6h32.9v6.4H253c0,3.6,0,7,0.1,10.4c0,0.3,1.1,0.9,1.6,0.9c4,0.1,8,0.2,12,0c2-0.1,2.6,0.6,2.4,2.5
	c-0.1,1.4,0,2.8,0,4.3H253c0,4.6,0,8.9,0.1,13.3c0,0.3,0.8,0.9,1.2,1c1,0.1,2,0.1,3,0v6.2h-16.7v-6c3.7-0.6,3.7-0.6,3.7-4.5v-25.6
	c0-2.7,0.4-2.8-2.6-2.7C241.2,146.8,240.8,146.8,240.5,146.7z"/>
</svg>
