<?xml version="1.0" encoding="utf-8"?>
<!-- Generator: Adobe Illustrator 26.0.3, SVG Export Plug-In . SVG Version: 6.00 Build 0)  -->
<svg version="1.1" id="f0a5a1a4-feb6-4c6e-ad69-add6d9cf9d85"
	 xmlns="http://www.w3.org/2000/svg" xmlns:xlink="http://www.w3.org/1999/xlink" x="0px" y="0px" viewBox="0 0 423.8 424.7"
	 style="enable-background:new 0 0 423.8 424.7;" xml:space="preserve">
<style type="text/css">
	.st0{display:none;}
	.st1{fill:#FFFFFF;}
	.st2{stroke:#000000;stroke-width:3;stroke-miterlimit:10;}
	.st3{fill:none;stroke:#FFFFFF;stroke-width:2;stroke-miterlimit:10;}
</style>
<rect class="st0" width="424.7" height="424.7"/>
<path class="st1" d="M211.9,11c111,0.2,200.8,90.4,200.6,201.4c-0.2,80.5-48.3,153.1-122.4,184.6c-103.2,40.9-221.9-8.2-262.7-111.5
	c-39.6-99.9,8.3-214.7,106.4-258.8C158.5,16.3,185.1,10.9,211.9,11 M211.9,0C94.9,0,0,94.9,0,211.9s94.9,211.9,211.9,211.9
	s211.9-94.9,211.9-211.9S328.9,0,211.9,0z"/>
<path class="st0" d="M211.9,10.8c-111.1,0-201.1,90-201.1,201.1S100.8,413,211.9,413S413,323,413,211.9S323,10.8,211.9,10.8z"/>
<path class="st1" d="M281.3,62.9H140c-12.5,0-22.7,10.2-22.7,22.7v256.1c0,12.5,10.2,22.7,22.7,22.7h141.3
	c12.5,0,22.7-10.2,22.7-22.7l0,0V85.6C304,73.1,293.8,62.9,281.3,62.9z M288.3,333.5h-156V90.4h156V333.5z"/>
<path class="st2" d="M189.9,343h40.4c2.8,0,5,2.2,5,5v2.1c0,2.8-2.2,5-5,5h-40.4c-2.8,0-5-2.2-5-5V348
	C184.9,345.3,187.2,343,189.9,343z"/>
<path d="M274.8,74.5h1c1.4,0,2.5,1.1,2.5,2.5c0,0,0,0,0,0v1c0,1.4-1.1,2.5-2.5,2.5c0,0,0,0,0,0h-1c-1.4,0-2.5-1.1-2.5-2.5
	c0,0,0,0,0,0v-1C272.3,75.6,273.4,74.5,274.8,74.5C274.8,74.5,274.8,74.5,274.8,74.5z"/>
<path d="M275.3,81.4c-2.2,0-3.9-1.7-3.9-3.9c0.1-2.1,1.8-3.8,3.9-3.9l0,0c2.2,0,3.9,1.7,3.9,3.9S277.5,81.4,275.3,81.4z M275.3,75.4
	c-1.2,0-2.1,0.9-2.1,2.1c0,1.2,0.9,2.1,2.1,2.1c1.2,0,2.1-0.9,2.1-2.1l0,0C277.4,76.3,276.5,75.4,275.3,75.4z"/>
<path d="M265,74.5h1c1.4,0,2.5,1.1,2.5,2.5c0,0,0,0,0,0v1c0,1.4-1.1,2.5-2.5,2.5c0,0,0,0,0,0h-1c-1.4,0-2.5-1.1-2.5-2.5c0,0,0,0,0,0
	v-1C262.5,75.6,263.6,74.5,265,74.5z"/>
<path d="M265.5,81.4c-2.2,0-3.9-1.7-3.9-3.9c0.1-2.1,1.8-3.8,3.9-3.9l0,0c2.2,0,3.9,1.7,3.9,3.9S267.7,81.4,265.5,81.4z M265.5,75.4
	c-1.2,0-2.1,0.9-2.1,2.1c0,1.2,0.9,2.1,2.1,2.1c1.2,0,2.1-0.9,2.1-2.1l0,0c0.1-1.1-0.8-2-1.9-2.1C265.6,75.4,265.6,75.4,265.5,75.4z
	"/>
<path class="st3" d="M270.2,300.3c1.9-2.3,3-5.2,3-8.2v-55.7c0-7.1-5.8-12.9-12.9-12.9H159.9c-7.1,0-12.9,5.8-12.9,12.9v55.7
	c0,7.1,5.7,12.9,12.8,12.9c0,0,0,0,0,0h93c5.5,0.3,6.8,4.7,12.1,8s8,2.8,11.5,2.9C270,309.6,267.3,304.5,270.2,300.3z"/>
<path class="st1" d="M157.9,275.8c3.1,1.6,6.5,2.4,10,2.5c4.1,0,6.3-1.7,6.3-4.3s-1.9-3.9-6.7-5.6c-6.6-2.3-10.9-6-10.9-11.8
	c0-6.8,5.7-12,15.1-12c3.5-0.1,7,0.6,10.2,2l-2,7.3c-2.6-1.2-5.5-1.9-8.4-1.9c-3.9,0-5.8,1.8-5.8,3.8c0,2.5,2.2,3.7,7.4,5.6
	c7,2.6,10.4,6.3,10.4,11.9c0,6.7-5.1,12.4-16.1,12.4c-3.9,0-7.7-0.8-11.3-2.4L157.9,275.8z"/>
<path class="st1" d="M223.2,269.9c-0.2-4.8-0.4-10.6-0.4-16.4h-0.2c-1.2,5.1-2.9,10.8-4.4,15.4l-4.9,15.5h-7L202,269
	c-1.3-4.7-2.7-10.4-3.6-15.6h-0.1c-0.2,5.4-0.4,11.5-0.7,16.5l-0.7,15.1h-8.3l2.5-39.9h12l3.9,13.3c1.2,4.6,2.5,9.6,3.4,14.2h0.2
	c1.1-4.6,2.5-9.9,3.8-14.3l4.3-13.2h11.8l2.2,39.8h-8.8L223.2,269.9z"/>
<path class="st1" d="M239.9,275.8c3.1,1.6,6.5,2.4,10,2.5c4.1,0,6.3-1.7,6.3-4.3s-1.9-3.9-6.7-5.6c-6.6-2.3-10.9-6-10.9-11.8
	c0-6.8,5.7-12,15.1-12c3.5-0.1,7,0.6,10.2,2l-2,7.3c-2.6-1.3-5.4-1.9-8.3-1.9c-3.9,0-5.8,1.8-5.8,3.8c0,2.5,2.2,3.7,7.4,5.6
	c7,2.6,10.4,6.3,10.4,11.9c0,6.7-5.1,12.4-16.1,12.4c-3.9,0.1-7.8-0.8-11.3-2.4L239.9,275.8z"/>
<path class="st3" d="M150,191.2c-1.9-2.3-3-5.2-3-8.2v-55.7c0-7.1,5.8-12.9,12.9-12.9h100.4c7.1,0,12.9,5.8,12.9,12.9V183
	c0,7.1-5.8,12.9-12.9,12.9h-93c-5.5,0.3-6.9,4.7-12.1,8c-5.4,3.4-8.1,2.8-11.5,2.9C150.2,200.5,152.9,195.4,150,191.2z"/>
<path class="st1" d="M190.4,179.4c-2,1-6.4,2-12.1,2c-16.3,0-24.6-10.1-24.6-23.5c0-16.1,11.4-25,25.7-25c5.5,0,9.7,1.1,11.6,2.1
	l-2.2,8.4c-2.8-1.2-5.8-1.8-8.9-1.8c-8.4,0-15,5.1-15,15.6c0,9.4,5.6,15.4,15.1,15.4c3,0,6-0.5,8.9-1.5L190.4,179.4z"/>
<path class="st1" d="M215.8,180.7l-0.6-3.4H215c-2.5,2.8-6.1,4.3-9.8,4.2c-6.9,0-11-5-11-10.5c0-8.9,8-13.1,20-13.1v-0.5
	c0-1.8-1-4.4-6.2-4.4c-3.3,0-6.6,0.9-9.4,2.6l-2-6.8c4.1-2.1,8.7-3.1,13.3-3c11.4,0,15,6.7,15,14.7v11.9c-0.1,2.8,0.1,5.6,0.5,8.3
	H215.8z M214.5,164.6c-5.6-0.1-9.9,1.3-9.9,5.4c0,2.7,1.8,4,4.2,4c2.5,0,4.7-1.6,5.5-3.9c0.1-0.6,0.2-1.2,0.2-1.8V164.6z"/>
<path class="st1" d="M233.2,131.1h10.6v49.6h-10.6V131.1z"/>
<path class="st1" d="M252.4,131.1H263v49.6h-10.6V131.1z"/>
<path class="st1" d="M193.5,346h32.4c1.4,0,2.5,1.1,2.5,2.5c0,0,0,0,0,0v1c0,1.4-1.1,2.5-2.5,2.5c0,0,0,0,0,0h-32.4
	c-1.4,0-2.5-1.1-2.5-2.5c0,0,0,0,0,0v-1C191,347.1,192.1,346,193.5,346z"/>
<path class="st1" d="M211.9,11.4c111,0.2,200.8,90.4,200.6,201.4c-0.2,80.5-48.3,153.1-122.4,184.6c-103.3,40.8-220-9.9-260.8-113.2
	c-39.4-99.8,6.5-213,104.4-257.1C158.5,16.7,185,11.4,211.9,11.4 M211.9,0.4C94.9,0.4,0,95.3,0,212.3s94.9,211.9,211.9,211.9
	s211.9-94.9,211.9-211.9S328.9,0.4,211.9,0.4z"/>
</svg>
